<?xml version="1.0" encoding="UTF-8"?>
<svg width="125px" height="50px" viewBox="0 0 125 50" version="1.1" xmlns="http://www.w3.org/2000/svg" xmlns:xlink="http://www.w3.org/1999/xlink">
    <!-- Generator: Sketch 53.2 (72643) - https://sketchapp.com -->
    <title>astro-logo-small</title>
    <desc>Created with Sketch.</desc>
    <g id="Page-1" stroke="none" stroke-width="1" fill="none" fill-rule="evenodd">
        <g id="astro-logo-small" transform="translate(25.000000, 0.000000)" fill-rule="nonzero">
            <path d="M69.8642592,12.5151021 C69.9581483,12.939687 70.0036097,13.3735096 69.9997764,13.808295 L69.9997764,24.1562114 C69.9997764,26.9208232 68.5817331,28.3031292 65.7456463,28.3031292 L59.484911,28.3031292 C58.2169139,28.3031292 57.2553495,27.9174123 56.6002177,27.1459785 C55.9450859,26.3745448 55.61752,25.3244352 55.61752,23.9956498 L55.61752,13.808295 C55.6161263,13.4872942 55.6383762,13.1666253 55.6840898,12.8488803 L55.6167275,12.8488803 C54.8622693,13.4064956 53.7876418,14.2045578 53.7725843,14.2369865 C53.7424694,14.3034258 53.4833225,13.415196 52.4253375,13.415196 C51.9133837,13.415196 51.1803229,13.415196 50.6739166,13.415196 C50.3386898,13.415196 49.4265245,13.6247961 48.7838085,14.2338227 C48.1410925,14.8428494 47.8209232,15.8687033 47.8209232,16.618518 L47.8209232,28.2604182 L46.4459389,28.3031292 L45.0669922,28.3031292 L43.6484205,28.2960107 L43.6484205,13.4183598 L37.4899174,13.4183598 L37.4899174,26.4040734 C37.4899174,26.8114094 37.6238496,27.2915122 37.8925064,27.5588512 C38.1611633,27.8261901 38.4797476,28.1916061 38.8664867,28.1916061 L41.0418941,28.1916061 L39.2231108,32 L37.1546907,32 C35.3382849,32 33.3570395,29.9815117 33.3570395,26.9806713 L33.3570395,13.4183598 L29.3945488,13.4183598 L29.3779063,11.6743289 L26.9885244,13.4183598 L21.7334692,13.4183598 C21.3467301,13.4183598 21.1129432,13.4824262 20.7507715,13.8201592 C20.3885998,14.1578921 20.3481824,14.4149488 20.3481824,14.8009294 L20.3481824,15.7690444 C20.3604773,16.5100013 20.9593562,17.1077056 21.7017693,17.1199763 L25.9733343,17.1199763 C28.9388624,17.1199763 30.4216264,18.5344472 30.4216264,21.3633892 L30.4216264,24.0597162 C30.4216264,26.8889218 28.9650148,28.2604182 26.0628866,28.2604182 L11.4064258,28.2604182 L11.4064258,26.5875723 C11.4064258,27.0289189 10.0861239,28.3031292 8.42267031,28.3031292 L4.38647725,28.3031292 C1.48593403,28.3031292 0,26.8920856 0,24.0597162 L0,21.3633892 C0,18.5555391 1.51842645,17.1413318 4.48316202,17.1199763 L10.0171766,17.0843838 L9.99498664,14.8942607 C9.99498664,13.9087449 9.50073193,13.4157233 8.5122226,13.415196 L5.87875126,13.415196 C4.98481335,13.415196 4.09563043,13.6920263 4.09563043,14.8033022 L4.09563043,15.6931138 L2.84744584,15.6931138 L0.0301149296,13.6319146 L0.0301149296,13.4183598 C0.0301149296,12.1963518 0.554748703,11.2685748 1.52159644,10.5614712 C2.31409459,10.0078106 3.14067016,9.72544367 4.064723,9.72544367 L9.42201048,9.72544367 C11.355706,9.72544367 12.6664979,10.1863002 13.3543863,11.1080132 C13.8483768,11.772406 14.0953721,12.876036 14.0953721,14.4189036 L14.0953721,15.4115379 L14.0842771,24.6299867 L21.6351994,24.6299867 L24.797267,24.6426418 C25.1767148,24.6542336 25.544098,24.508828 25.8124572,24.2408424 C26.0768655,23.9835501 26.222867,23.6285662 26.2158387,23.2600722 L26.2047437,20.8571852 L21.3221627,20.8571852 L20.8561738,20.8445301 C19.2014376,20.8445301 18.1569251,20.5123338 17.4373367,19.8479411 C16.7177484,19.1835484 16.3579543,18.1015374 16.3579543,16.6011172 L16.3579543,14.1294182 C16.3579543,12.8871092 16.5621546,11.9443044 16.9705553,11.3010035 C17.6576512,10.2506303 18.7822061,9.6898512 20.6311043,9.6898512 L22.0235235,9.6898512 L33.3388121,9.68115082 L33.3570395,2.0944189 L36.2274678,0 L37.5113148,0 L37.5113148,9.68115082 L47.8177532,9.68115082 L47.8177532,11.4963666 L47.8542081,11.4963666 C48.1093925,10.6698304 49.2387024,9.68115082 50.7745638,9.68115082 L52.0584108,9.68115082 C52.8104916,9.68115082 53.2154581,9.74759009 53.9841813,9.96589055 C55.0532613,10.3028326 55.6412949,11.2068812 55.7673021,11.3895892 C55.8021721,11.4394187 55.8608169,11.5319591 55.9258018,11.6387365 L56.029619,11.6387365 C56.5986327,10.2941322 57.8373073,9.6898512 59.8098352,9.6898512 L66.0705706,9.6898512 C66.955791,9.6898512 67.7134192,9.90815166 68.3434553,10.3083692 L63.4791016,13.4183598 L61.1689695,13.4183598 C60.8005897,13.4153826 60.4464199,13.5600639 60.185853,13.819971 C59.9252861,14.0798781 59.7801179,14.4332705 59.7828903,14.8009294 L59.7828903,23.2640269 C59.7801179,23.6316858 59.9252861,23.9850781 60.185853,24.2449852 C60.4464199,24.5048923 60.8005897,24.6495737 61.1689695,24.6465965 L64.4491194,24.6465965 C64.8285672,24.6581883 65.1959503,24.5127827 65.4643095,24.2447971 C65.7244624,23.9976829 65.8704876,23.6540945 65.867691,23.2956646 L65.867691,16.3353601 L69.8642592,12.5151021 Z M9.99498664,20.8445301 L5.61881187,20.8445301 C5.21067532,20.8445301 4.72883645,20.9789906 4.46097207,21.2463295 C4.19664848,21.5030266 4.05062194,21.8574986 4.05759052,22.2255178 L4.05759052,23.2584903 C4.05018067,23.6270556 4.19624209,23.9821851 4.46097207,24.2392605 C4.72883645,24.5089723 5.2209778,24.5983489 5.62673685,24.5983489 L8.55105501,24.5983489 C9.50839277,24.5137179 9.99260914,23.8912452 9.99260914,22.588561 L9.99498664,20.8445301 Z" id="Shape" fill="#000000"></path>
            <path d="M6.47100009,38.095 L6.28900009,39.291 C5.62600009,39.031 5.26200009,38.914 4.58600009,38.914 C3.85800009,38.914 3.00000009,39.174 3.00000009,40.123 C3.00000009,41.865 6.90000009,41.462 6.90000009,44.452 C6.90000009,46.389 5.40500009,47.156 3.58500009,47.156 C2.94800009,47.156 2.32400009,46.974 1.72600009,46.779 L1.85600009,45.57 C2.29800009,45.752 3.07800009,46.012 3.74100009,46.012 C4.48200009,46.012 5.52200009,45.596 5.52200009,44.53 C5.52200009,42.502 1.62200009,43.061 1.62200009,40.24 C1.62200009,38.628 2.89600009,37.77 4.53400009,37.77 C5.13200009,37.77 5.84700009,37.874 6.47100009,38.095 Z M8.22600007,49.73 L8.22600007,40.37 L9.39600007,40.37 L9.39600007,41.306 L9.42200007,41.306 C9.74700007,40.812 10.5010001,40.214 11.6710001,40.214 C13.5950001,40.214 14.5310001,41.787 14.5310001,43.568 C14.5310001,45.388 13.6860001,47.156 11.6840001,47.156 C10.5140001,47.156 9.85100007,46.701 9.47400007,46.09 L9.44800007,46.09 L9.44800007,49.73 L8.22600007,49.73 Z M13.2310001,43.659 C13.2570001,42.463 12.7370001,41.202 11.4110001,41.202 C10.0850001,41.202 9.44800007,42.463 9.44800007,43.698 C9.44800007,44.803 10.0200001,46.168 11.3980001,46.168 C12.7110001,46.168 13.2570001,44.699 13.2310001,43.659 Z M16.2210001,41.878 L16.1560001,40.838 C16.7670001,40.474 17.4950001,40.214 18.3400001,40.214 C20.2380001,40.214 21.0050001,41.15 21.0050001,42.957 L21.0050001,45.7 C21.0050001,46.454 21.0310001,46.805 21.0570001,47 L19.9130001,47 L19.9130001,46.142 L19.8870001,46.142 C19.6010001,46.545 18.9510001,47.156 17.8330001,47.156 C16.4030001,47.156 15.4020001,46.532 15.4020001,45.089 C15.4020001,43.425 17.2220001,42.905 18.4830001,42.905 C18.9640001,42.905 19.3020001,42.905 19.7830001,42.931 C19.7830001,41.787 19.3670001,41.202 18.1450001,41.202 C17.4560001,41.202 16.7150001,41.462 16.2210001,41.878 Z M19.7830001,44.426 L19.7830001,43.841 C19.5230001,43.841 19.2630001,43.815 19.0030001,43.815 C18.3400001,43.815 16.7020001,43.919 16.7020001,45.089 C16.7020001,45.791 17.3780001,46.168 17.9370001,46.168 C19.1460001,46.168 19.7830001,45.414 19.7830001,44.426 Z M27.063,40.474 L26.959,41.488 C26.491,41.293 26.023,41.202 25.633,41.202 C24.268,41.202 23.501,42.424 23.501,43.685 C23.501,44.868 24.138,46.168 25.711,46.168 C26.127,46.168 26.647,46.038 27.024,45.791 L27.115,46.883 C26.608,47.117 26.023,47.156 25.581,47.156 C23.579,47.156 22.201,45.583 22.201,43.685 C22.201,41.67 23.553,40.214 25.581,40.214 C26.075,40.214 26.712,40.331 27.063,40.474 Z M33.277,45.505 L33.277,46.727 C32.809,46.896 32.276,47.156 31.184,47.156 C28.831,47.156 27.752,45.726 27.752,43.568 C27.752,41.605 28.987,40.214 30.859,40.214 C33.069,40.214 33.784,41.826 33.784,43.958 L29.052,43.958 C29.052,45.271 30.079,46.168 31.236,46.168 C32.042,46.168 32.978,45.752 33.277,45.505 Z M29.052,43.048 L32.484,43.048 C32.484,42.034 31.886,41.202 30.833,41.202 C29.637,41.202 29.143,42.19 29.052,43.048 Z M45.562,37.926 L45.562,43.243 C45.562,45.791 44.275,47.156 42.039,47.156 C39.803,47.156 38.516,45.791 38.516,43.243 L38.516,37.926 L39.816,37.926 L39.816,43.074 C39.816,44.816 40.362,46.012 42.039,46.012 C43.716,46.012 44.262,44.816 44.262,43.074 L44.262,37.926 L45.562,37.926 Z M46.511,47 L49.852,42.281 L46.81,37.926 L48.37,37.926 L50.788,41.41 L53.193,37.926 L54.675,37.926 L51.62,42.255 L54.974,47 L53.336,47 L50.658,43.152 L48.071,47 L46.511,47 Z M55.8319999,47 L55.8319999,37.926 L58.5099999,37.926 C61.2009999,37.926 63.3459999,39.59 63.3459999,42.385 C63.3459999,45.427 61.4999999,47 58.5099999,47 L55.8319999,47 Z M57.1319999,39.07 L57.1319999,45.856 L58.4969999,45.856 C60.7329999,45.856 61.9679999,44.777 61.9679999,42.437 C61.9679999,40.318 60.5249999,39.07 58.6529999,39.07 L57.1319999,39.07 Z M69.2739999,38.095 L69.0919999,39.291 C68.4289999,39.031 68.0649999,38.914 67.3889999,38.914 C66.6609999,38.914 65.8029999,39.174 65.8029999,40.123 C65.8029999,41.865 69.7029999,41.462 69.7029999,44.452 C69.7029999,46.389 68.2079999,47.156 66.3879999,47.156 C65.7509999,47.156 65.1269999,46.974 64.5289999,46.779 L64.6589999,45.57 C65.1009999,45.752 65.8809999,46.012 66.5439999,46.012 C67.2849999,46.012 68.3249999,45.596 68.3249999,44.53 C68.3249999,42.502 64.4249999,43.061 64.4249999,40.24 C64.4249999,38.628 65.6989999,37.77 67.3369999,37.77 C67.9349999,37.77 68.6499999,37.874 69.2739999,38.095 Z" id="Space-UXDS" fill="#000000"></path>
            <path d="M70,8.5 C70,7.11931034 71.1193103,6 72.5,6 C73.8806897,6 75,7.11931034 75,8.5 C75,9.88068966 73.8806897,11 72.5,11 C71.1193103,11 70,9.88068966 70,8.5 Z" id="Path" fill="#FFA301"></path>
        </g>
    </g>
</svg>